<?xml version="1.0" standalone="no"?>
<!DOCTYPE svg PUBLIC "-//W3C//DTD SVG 20010904//EN"
 "http://www.w3.org/TR/2001/REC-SVG-20010904/DTD/svg10.dtd">
<svg version="1.0" xmlns="http://www.w3.org/2000/svg"
 width="205.000000pt" height="205.000000pt" viewBox="0 0 205.000000 205.000000"
 preserveAspectRatio="xMidYMid meet">
<metadata>
Created by potrace 1.14, written by Peter Selinger 2001-2017
</metadata>
<g transform="translate(0.000000,205.000000) scale(0.100000,-0.100000)"
fill="#000000" stroke="none">
<path d="M190 2040 c0 -4 73 -126 161 -271 89 -145 211 -345 272 -444 60 -99
117 -191 127 -205 9 -14 25 -40 34 -58 l17 -34 -39 -61 c-44 -69 -64 -103
-351 -572 -112 -181 -211 -342 -222 -357 -10 -15 -19 -30 -19 -33 0 -3 93 -4
207 -3 l207 3 137 233 c75 128 164 279 199 337 34 58 68 118 76 135 9 16 19
30 24 30 5 0 41 -55 81 -122 39 -68 102 -175 139 -238 37 -63 102 -175 145
-248 l77 -132 208 0 209 0 -186 302 c-102 167 -196 319 -208 338 -52 80 -225
367 -230 382 -6 16 53 119 216 381 27 43 49 82 49 87 0 6 3 10 8 10 4 0 12 10
18 23 6 12 48 83 93 157 111 179 195 320 209 346 11 20 10 21 -193 21 l-203 0
-64 -109 c-34 -61 -73 -128 -85 -149 -13 -22 -33 -56 -45 -78 -179 -308 -234
-399 -240 -393 -5 6 -45 72 -131 222 -11 19 -28 49 -38 65 -10 17 -23 39 -28
50 -6 11 -59 103 -119 205 l-108 185 -202 1 c-111 1 -202 -2 -202 -6z"/>
</g>
</svg>
